<svg width="16" height="20" viewBox="0 0 16 20" fill="none" xmlns="http://www.w3.org/2000/svg">
<path fill-rule="evenodd" clip-rule="evenodd" d="M8 0.71875C5.99467 0.719843 4.07179 1.51699 2.65387 2.93504C1.23595 4.35309 0.438981 6.27604 0.438072 8.28137C0.579565 9.82114 1.11847 11.2978 2.00203 12.5667C3.53644 14.8831 5.30545 17.0353 7.28103 18.9891C7.47345 19.1764 7.73141 19.2813 7.99998 19.2813C8.26855 19.2813 8.52651 19.1764 8.71893 18.9891C10.6945 17.0353 12.4636 14.8832 13.998 12.5667C14.8815 11.2978 15.4204 9.82116 15.5619 8.2814C15.561 6.27607 14.7641 4.35311 13.3461 2.93506C11.9282 1.517 10.0053 0.71985 8 0.71875V0.71875ZM8 4.84375C7.38811 4.84371 6.78995 5.02511 6.28116 5.36502C5.77237 5.70493 5.3758 6.18809 5.1416 6.75338C4.9074 7.31868 4.8461 7.94073 4.96543 8.54087C5.08477 9.14101 5.37939 9.69229 5.81203 10.125C6.24468 10.5577 6.79592 10.8524 7.39605 10.9718C7.99617 11.0912 8.61823 11.0299 9.18355 10.7958C9.74888 10.5617 10.2321 10.1652 10.5721 9.65642C10.912 9.14767 11.0935 8.54953 11.0935 7.93764C11.0931 7.11728 10.7671 6.33063 10.187 5.75051C9.60697 5.1704 8.82036 4.84426 8 4.84375V4.84375Z" fill="#E4A293"/>
</svg>
