<svg width="22" height="22" viewBox="0 0 22 22" fill="none" xmlns="http://www.w3.org/2000/svg">
<path d="M0.601006 9.33241C0.212341 8.28257 -0.0691051 7.21039 0.0157756 6.0712C0.0693845 5.36982 0.332961 4.77119 0.846713 4.27977C1.40514 3.75262 1.93229 3.19866 2.48178 2.66257C3.19657 1.95672 4.09452 1.96119 4.8093 2.66257C5.25157 3.09591 5.68938 3.53818 6.12718 3.98046C6.55159 4.40486 6.98046 4.82926 7.40486 5.25813C8.15092 6.01313 8.15539 6.89321 7.40933 7.64373C6.87324 8.17982 6.34162 8.72037 5.7966 9.24753C5.65364 9.38602 5.64024 9.50217 5.71618 9.6764C6.07358 10.5341 6.59179 11.2981 7.17256 12.0128C8.34302 13.4514 9.66537 14.729 11.2424 15.7163C11.5819 15.9263 11.9527 16.0827 12.3056 16.2748C12.4888 16.373 12.6094 16.3418 12.7568 16.1899C13.2884 15.6404 13.8335 15.0998 14.3785 14.5593C15.0933 13.8534 15.9867 13.849 16.7015 14.5593C17.5771 15.4259 18.4483 16.2971 19.315 17.1727C20.0431 17.9054 20.0387 18.8033 19.306 19.5404C18.8101 20.0408 18.2875 20.5143 17.8228 21.037C17.1438 21.7965 16.2861 22.0466 15.3122 21.993C13.8915 21.9171 12.5826 21.4435 11.3183 20.8315C8.51278 19.4689 6.11825 17.5792 4.11239 15.1936C2.62921 13.4246 1.40514 11.5036 0.601006 9.33241ZM21.9999 10.9317C21.9999 4.90521 17.0947 0 11.0681 0V2.08181C15.9465 2.08181 19.9181 6.05333 19.9181 10.9317H21.9999ZM16.0136 10.9317H18.0954C18.0954 7.0585 14.9414 3.90451 11.0681 3.90451V5.98632C12.3905 5.98632 13.6324 6.50007 14.5661 7.43376C15.4998 8.36745 16.0136 9.60939 16.0136 10.9317Z" fill="#E4A293"/>
</svg>
