<svg width="23" height="23" viewBox="0 0 23 23" fill="none" xmlns="http://www.w3.org/2000/svg">
<path d="M11.5 0C5.15893 0 0 5.15893 0 11.5C0 17.8406 5.15893 23 11.5 23C17.8406 23 23 17.8406 23 11.5C23 5.15893 17.8415 0 11.5 0ZM14.3599 11.9049H12.489V18.5734H9.71659C9.71659 18.5734 9.71659 14.9297 9.71659 11.9049H8.39871V9.54797H9.71659V8.0235C9.71659 6.93168 10.2354 5.22563 12.5145 5.22563L14.5689 5.2335V7.52137C14.5689 7.52137 13.3205 7.52137 13.0777 7.52137C12.835 7.52137 12.4899 7.64273 12.4899 8.1634V9.54844H14.6022L14.3599 11.9049Z" fill="#267C8F"/>
</svg>
