<svg width="23" height="23" viewBox="0 0 23 23" fill="none" xmlns="http://www.w3.org/2000/svg">
<g clip-path="url(#clip0_2_84)">
<path d="M11.4999 0C9.22546 0 7.00205 0.674463 5.11089 1.9381C3.21972 3.20174 1.74574 4.99779 0.875329 7.09914C0.00492171 9.20049 -0.222817 11.5128 0.220913 13.7435C0.664643 15.9743 1.75991 18.0234 3.36822 19.6317C4.97652 21.24 7.02562 22.3353 9.25641 22.779C11.4872 23.2228 13.7995 22.995 15.9008 22.1246C18.0022 21.2542 19.7982 19.7802 21.0618 17.8891C22.3255 15.9979 22.9999 13.7745 22.9999 11.5C22.9999 8.45001 21.7883 5.52494 19.6317 3.36827C17.475 1.2116 14.5499 0 11.4999 0V0ZM16.684 10.2184C15.6581 10.3318 14.779 9.92632 13.8998 9.40882C13.8998 9.49355 13.9255 12.1204 13.8817 13.3733C13.8378 14.661 13.3778 15.7943 12.3685 16.6402C10.2289 18.4363 7.19198 17.4664 6.46718 14.72C6.07376 13.2235 6.41573 11.8753 7.58994 10.8085C8.25119 10.2032 9.06679 9.93388 9.94139 9.82191C10.129 9.7977 10.3182 9.78711 10.5209 9.76895V11.8026C10.2637 11.8662 10.0034 11.9222 9.74771 11.9978C9.5703 12.0491 9.39726 12.1143 9.23021 12.193C8.99716 12.2978 8.79137 12.4549 8.62879 12.652C8.46621 12.8492 8.3512 13.0811 8.29267 13.3298C8.23415 13.5786 8.23368 13.8374 8.2913 14.0864C8.34892 14.3353 8.46308 14.5677 8.62494 14.7654C8.81959 15.0345 9.08432 15.2451 9.39034 15.3743C9.69635 15.5034 10.0319 15.5461 10.3605 15.4978C11.0218 15.4176 11.4364 15.0014 11.6815 14.4038C11.851 13.9307 11.9246 13.4287 11.8979 12.9269C11.8888 10.4574 11.8888 7.98947 11.8843 5.52C11.8864 5.4946 11.8899 5.46934 11.8949 5.44434H13.8695C14.0905 7.09671 14.9288 8.14382 16.684 8.29211V10.2184Z" fill="#267C8F"/>
</g>
<defs>
<clipPath id="clip0_2_84">
<rect width="23" height="23" fill="white"/>
</clipPath>
</defs>
</svg>
