<svg width="23" height="23" viewBox="0 0 23 23" fill="none" xmlns="http://www.w3.org/2000/svg">
<g clip-path="url(#clip0_2_88)">
<path d="M9.90515 13.355L13.0949 11.5044L9.90515 9.64478V13.355Z" fill="#267C8F"/>
<path d="M11.4999 0C9.22546 0 7.00205 0.674463 5.11089 1.9381C3.21972 3.20174 1.74574 4.99779 0.875329 7.09914C0.00492171 9.20049 -0.222817 11.5128 0.220913 13.7435C0.664643 15.9743 1.75991 18.0234 3.36822 19.6317C4.97652 21.24 7.02562 22.3353 9.25641 22.779C11.4872 23.2228 13.7995 22.995 15.9008 22.1246C18.0022 21.2542 19.7982 19.7802 21.0618 17.8891C22.3255 15.9979 22.9999 13.7745 22.9999 11.5C22.9999 8.45001 21.7883 5.52494 19.6317 3.36827C17.475 1.2116 14.5499 0 11.4999 0V0ZM17.5526 13.5352C17.5528 13.836 17.4937 14.1338 17.3787 14.4118C17.2638 14.6897 17.0952 14.9423 16.8826 15.155C16.6699 15.3678 16.4175 15.5366 16.1396 15.6517C15.8618 15.7669 15.5639 15.8261 15.2632 15.8261H7.73672C7.43594 15.8261 7.13811 15.7669 6.86025 15.6517C6.58239 15.5366 6.32994 15.3678 6.11733 15.155C5.90472 14.9423 5.73611 14.6897 5.62115 14.4118C5.50618 14.1338 5.44711 13.836 5.44731 13.5352V9.4648C5.44711 9.16403 5.50618 8.86616 5.62115 8.58822C5.73611 8.31028 5.90472 8.05772 6.11733 7.84497C6.32994 7.63222 6.58239 7.46345 6.86025 7.3483C7.13811 7.23315 7.43594 7.17388 7.73672 7.17388H15.2632C15.5639 7.17388 15.8618 7.23315 16.1396 7.3483C16.4175 7.46345 16.6699 7.63222 16.8826 7.84497C17.0952 8.05772 17.2638 8.31028 17.3787 8.58822C17.4937 8.86616 17.5528 9.16403 17.5526 9.4648V13.5352Z" fill="#267C8F"/>
</g>
<defs>
<clipPath id="clip0_2_88">
<rect width="23" height="23" fill="white"/>
</clipPath>
</defs>
</svg>
