<svg width="63" height="63" viewBox="0 0 63 63" fill="none" xmlns="http://www.w3.org/2000/svg">
<path d="M15.7868 31.905C19.9096 31.0504 24.0359 30.147 28.1657 29.3203C28.4516 29.2612 28.6854 29.0901 28.8354 28.8634C28.9923 28.6229 29.0447 28.3438 28.9889 28.0648C28.9297 27.7786 28.7586 27.545 28.532 27.3951C28.3052 27.2451 28.0192 27.1823 27.7332 27.2415L15.3193 29.8365C15.0333 29.8958 14.7996 30.0667 14.6496 30.2936C14.4996 30.5202 14.4368 30.8062 14.4962 31.0922C14.552 31.3642 14.7194 31.6083 14.953 31.7583C15.2112 31.9292 15.4868 31.9678 15.7868 31.905ZM51.5838 50.3843H57.081C57.8274 50.3843 58.5076 50.6876 58.9958 51.1796C59.4876 51.6713 59.7945 52.3515 59.7945 53.0979C59.7945 53.8443 59.4876 54.5245 58.9958 55.0162C58.5076 55.5081 57.8274 55.8114 57.081 55.8114H51.5838C50.8374 55.8114 50.1572 55.5081 49.6654 55.0162C49.177 54.5245 48.8702 53.8444 48.8702 53.0979C48.8702 52.3515 49.177 51.6713 49.6654 51.1796C50.1574 50.6876 50.8376 50.3843 51.5838 50.3843ZM57.081 52.2293H51.5838C51.3467 52.2293 51.1304 52.3271 50.9734 52.484C50.8129 52.6443 50.7152 52.8606 50.7152 53.0977C50.7152 53.3348 50.8129 53.5513 50.9734 53.7115C51.1303 53.8686 51.3466 53.9662 51.5838 53.9662H57.081C57.3181 53.9662 57.5344 53.8686 57.6913 53.7115C57.8517 53.5512 57.9494 53.3348 57.9494 53.0977C57.9494 52.8606 57.8518 52.6442 57.6913 52.484C57.5344 52.3271 57.3181 52.2293 57.081 52.2293ZM25.5112 31.7411L28.0051 35.4764L38.6017 33.2652C39.4074 33.0977 40.2828 33.164 41.0467 33.4815L45.6648 35.1731V10.6492C45.6648 9.84689 45.9927 9.1214 46.5193 8.59489C47.046 8.06812 47.7715 7.74033 48.5737 7.74033H53.4081V2.43147H40.7642L25.9577 12.3164L28.0679 15.4767C28.5283 16.0626 28.6853 16.9905 28.5458 17.7124C28.4062 18.4098 28.0087 19.0621 27.3843 19.5086C26.8123 19.9794 25.8531 20.1367 25.1381 19.997C24.4161 19.854 23.6069 19.3518 23.244 18.6995L21.7896 16.5162C21.5071 16.0941 21.6187 15.5219 22.0408 15.2395C22.4628 14.9569 23.0349 15.0721 23.3174 15.494L24.8172 17.7403C24.9777 17.9809 25.2253 18.1345 25.4904 18.1869C25.759 18.2391 26.045 18.1939 26.2856 18.0298C26.5298 17.8694 26.6832 17.6217 26.7356 17.3566C26.7879 17.0881 26.7391 16.8021 26.5787 16.5613L23.9175 12.5747L21.2561 8.588C21.0956 8.34719 20.8515 8.19388 20.5829 8.14146C20.3143 8.08904 20.0283 8.13814 19.7877 8.29834C19.547 8.45892 19.3935 8.70637 19.3412 8.97153C19.2855 9.24027 19.3342 9.52623 19.4983 9.77035L20.9981 12.0164C21.2806 12.4387 21.1654 13.0107 20.7435 13.2931C20.3214 13.5757 19.7494 13.4605 19.4669 13.0386L17.9671 10.7923C17.5205 10.1261 17.388 9.34473 17.5311 8.61925C17.6741 7.89032 18.0961 7.21713 18.7624 6.77072C19.4321 6.32443 20.2134 6.18846 20.9389 6.33144C21.6644 6.47774 22.341 6.89979 22.7874 7.56597L24.9361 10.7889L39.9724 0.750157C40.1399 0.638677 40.3317 0.586259 40.5166 0.593272H54.3325C54.8382 0.593272 55.2568 1.00499 55.2568 1.51415V7.7402H60.0912C60.8933 7.7402 61.6189 8.068 62.1457 8.59476C62.6722 9.1214 63 9.84689 63 10.6492V40.4924C63 41.0017 62.5884 41.4131 62.0757 41.4131C61.5664 41.4131 61.1548 41.0016 61.1548 40.4924V25.2743H47.51V35.8463L50.398 36.903V29.4459H49.8958C49.3865 29.4459 48.9749 29.0309 48.9749 28.5216C48.9749 28.0123 49.3865 27.6007 49.8958 27.6007H52.7454C53.2547 27.6007 53.6662 28.0124 53.6662 28.5216C53.6662 29.0309 53.2546 29.4459 52.7454 29.4459H52.2431V37.5905C53.1848 38.0195 53.9034 38.759 54.3149 39.6448C54.7578 40.5866 54.8835 41.9851 54.4335 42.9478C54.0289 44.0048 53.2371 44.807 52.2814 45.2533C51.3048 45.7104 50.1502 45.7976 49.055 45.3998L47.5099 44.8348V60.5621H61.1548V44.671C61.1548 44.1617 61.5664 43.7501 62.0757 43.7501C62.5884 43.7501 63 44.1618 63 44.671V61.4866C63 61.9959 62.5884 62.4072 62.0757 62.4072H46.5857C46.0764 62.4072 45.6648 61.9957 45.6648 61.4866V44.1617L39.1458 41.7759L28.9748 43.9035V52.2154H36.8577C38.0227 52.2154 39.0796 52.6897 39.8469 53.4572C40.6143 54.2245 41.0887 55.2812 41.0887 56.4463V61.4866C41.0887 61.9959 40.6771 62.4072 40.1643 62.4072H11.3047C10.7954 62.4072 10.3804 61.9957 10.3804 61.4866V56.4463C10.3804 55.2812 10.8581 54.2245 11.622 53.4572C12.3895 52.6898 13.4498 52.2154 14.6148 52.2154H22.4941V45.2568L20.4466 45.6824C19.6199 45.8567 18.7619 45.7694 17.9911 45.4555C17.2375 45.1453 16.5644 44.6221 16.0795 43.8965L9.5605 34.1267C9.27798 33.7047 9.38958 33.1361 9.81163 32.8535C10.2337 32.5675 10.8057 32.6825 11.0882 33.1046L17.6108 42.8744C17.8829 43.2861 18.2631 43.5826 18.6816 43.7536C19.1175 43.9314 19.6024 43.9802 20.0698 43.8826L39.0269 39.9204C39.1874 39.8853 39.3618 39.8959 39.5257 39.9552C42.9126 41.1933 46.296 42.4315 49.6828 43.6698C50.9175 44.1163 52.2848 43.4816 52.7312 42.2432C53.2963 40.5515 52.386 39.7214 50.9385 39.0588C47.4295 37.7752 43.9206 36.4949 40.4152 35.2113C39.8642 35.0509 39.5641 34.9428 38.9747 35.065L21.2802 38.7659C20.9245 38.8389 20.5408 38.696 20.3281 38.3751L17.0842 33.5163C16.7283 33.5896 16.3762 33.6627 16.0239 33.7359C15.2775 33.8616 14.5345 33.6908 13.945 33.3036C13.3311 32.8989 12.9196 32.299 12.7382 31.6397C12.5254 30.8654 12.6336 30.0071 13.1079 29.2852C13.2859 29.0098 13.5125 28.7656 13.7776 28.5633L6.19812 17.2099C5.83538 16.6658 5.2808 16.3204 4.68439 16.2018C4.08442 16.0833 3.44261 16.1914 2.89849 16.554C2.37185 16.9063 2.01255 17.4504 1.89049 18.0679C1.772 18.6677 1.88003 19.313 2.24634 19.8574L8.76537 29.6269C9.04788 30.0492 8.93628 30.6211 8.51423 30.9035C8.09218 31.1862 7.52013 31.071 7.23762 30.6491L0.715148 20.8794C0.0664453 19.9097 -0.12883 18.7727 0.0803496 17.7157C0.282639 16.6938 1.01514 15.487 1.94648 14.9813C2.89874 14.3671 4.00788 14.1892 5.0368 14.3916C6.06572 14.594 7.25164 15.3161 7.77139 16.2509L15.553 27.9075L27.3598 25.4414C28.1446 25.2775 28.9225 25.4449 29.5399 25.8532C30.1782 26.2718 30.6421 26.9414 30.792 27.6914C30.9524 28.4761 30.785 29.2504 30.377 29.8712C29.9619 30.5061 29.3201 30.9491 28.5771 31.113C27.5551 31.3188 26.5332 31.5281 25.5112 31.7411ZM26.0659 35.8847L23.5685 32.1454C22.0547 32.4629 20.5375 32.7838 19.0237 33.1046L21.5106 36.8333L26.0659 35.8847ZM47.51 12.0093H61.1549V10.6492C61.1549 10.3562 61.0363 10.0911 60.841 9.89931C60.6491 9.70748 60.384 9.58541 60.091 9.58541H48.5737C48.2808 9.58541 48.0156 9.70748 47.8239 9.89931C47.6286 10.0911 47.51 10.3562 47.51 10.6492V12.0093ZM61.1549 13.8545H47.51V23.4289H61.1549V13.8545ZM36.8576 54.0606C29.4422 54.0606 22.0267 54.0606 14.6148 54.0606C13.9591 54.0606 13.3626 54.3291 12.9301 54.7616C12.4942 55.1942 12.2256 55.7904 12.2256 56.4462V60.5621H39.2433V56.4462C39.2433 55.7904 38.9747 55.1941 38.5422 54.7616C38.1063 54.3291 37.5099 54.0606 36.8576 54.0606ZM27.1296 44.2872L24.3393 44.8697V52.2154H27.1296V44.2872ZM52.9093 21.5526C52.4 21.5526 51.985 21.1375 51.985 20.6283C51.985 20.119 52.4 19.7039 52.9093 19.7039H55.7554C56.2647 19.7039 56.6798 20.119 56.6798 20.6283C56.6798 21.1375 56.2647 21.5526 55.7554 21.5526H52.9093ZM50.9211 17.5798C50.4118 17.5798 50.0003 17.1647 50.0003 16.6554C50.0003 16.1461 50.4119 15.7348 50.9211 15.7348H57.7437C58.253 15.7348 58.6644 16.1463 58.6644 16.6554C58.6644 17.1646 58.2529 17.5798 57.7437 17.5798H50.9211ZM58.2669 29.4459V39.2507C58.2669 39.7599 57.8518 40.1713 57.3426 40.1713C56.8333 40.1713 56.4217 39.7598 56.4217 39.2507V29.4459H55.9194C55.4101 29.4459 54.9951 29.0309 54.9951 28.5216C54.9951 28.0123 55.4101 27.6007 55.9194 27.6007H58.7692C59.2784 27.6007 59.6899 28.0124 59.6899 28.5216C59.6899 29.0309 59.2783 29.4459 58.7692 29.4459H58.2669Z" fill="#267C8F"/>
</svg>
