<svg width="69" height="69" viewBox="0 0 69 69" fill="none" xmlns="http://www.w3.org/2000/svg">
<g clip-path="url(#clip0_2_133)">
<path d="M23.9551 16.2017C23.7568 16.8117 23.952 17.4656 24.452 17.8676L28.904 21.4459L27.4055 26.9577C27.2373 27.5765 27.4638 28.2202 27.9831 28.5978C28.5025 28.9746 29.1843 28.9912 29.721 28.64L34.5 25.5117L39.279 28.6401C39.5367 28.8087 39.8276 28.8925 40.1181 28.8925C40.4329 28.8925 40.747 28.794 41.0167 28.5978C41.5362 28.2206 41.7629 27.5765 41.5943 26.9577L40.0958 21.4461L44.5475 17.8679C45.0479 17.466 45.2431 16.812 45.0447 16.2017C44.8465 15.5912 44.3042 15.1768 43.6633 15.1458L37.9583 14.8676L35.9309 9.52793C35.7033 8.92809 35.1414 8.54037 34.4998 8.54037C33.8582 8.54037 33.2964 8.92795 33.0689 9.52779L31.0413 14.8677L25.3367 15.1458C24.6956 15.1768 24.1533 15.5912 23.9551 16.2017ZM31.5553 17.0014C32.1634 16.9717 32.6959 16.5848 32.9116 16.0158L34.4997 11.8334L36.0878 16.0162C36.3039 16.5851 36.8365 16.9717 37.444 17.0014L41.9125 17.2193L38.4253 20.022C37.9508 20.4035 37.7475 21.0295 37.9072 21.6165L39.0809 25.9336L35.3377 23.4832C35.0831 23.3166 34.7913 23.2333 34.4996 23.2333C34.2078 23.2333 33.9157 23.3167 33.661 23.4833L29.9181 25.9336L31.0917 21.6168C31.2516 21.0294 31.0482 20.4032 30.5736 20.022L27.0865 17.2194L31.5553 17.0014ZM33.4216 5.03457V1.07812C33.4216 0.48273 33.9043 0 34.4997 0C35.0951 0 35.5778 0.48273 35.5778 1.07812V5.03457C35.5778 5.62997 35.0951 6.1127 34.4997 6.1127C33.9043 6.1127 33.4216 5.62997 33.4216 5.03457ZM39.9872 11.4222C39.5888 10.9798 39.6246 10.298 40.067 9.89961L44.4758 5.92969C44.9184 5.53119 45.6001 5.5669 45.9986 6.00947C46.3969 6.4519 46.3612 7.13368 45.9188 7.53205L41.5098 11.502C41.3037 11.6875 41.0458 11.7789 40.7887 11.7789C40.4939 11.7789 40.2001 11.6587 39.9872 11.4222ZM23.0008 6.00947C23.3992 5.5669 24.0808 5.53119 24.5235 5.92969L28.9325 9.89961C29.375 10.298 29.4107 10.9798 29.0123 11.4222C28.7994 11.6586 28.5056 11.7789 28.2107 11.7789C27.9537 11.7789 27.6958 11.6875 27.4896 11.502L23.0806 7.53205C22.638 7.13368 22.6024 6.4519 23.0008 6.00947ZM48.3312 17.8676L52.7832 21.4459L51.2847 26.9577C51.1166 27.5765 51.3431 28.2202 51.8624 28.5978C52.3813 28.9746 53.0632 28.9911 53.6003 28.64L58.3792 25.5117L63.1583 28.6401C63.4159 28.8087 63.7069 28.8925 63.9973 28.8925C64.3121 28.8925 64.6263 28.794 64.8959 28.5978C65.4152 28.2209 65.6419 27.5771 65.4735 26.9577L63.9751 21.4461L68.4268 17.8679C68.927 17.4662 69.1222 16.8121 68.9238 16.2017C68.7256 15.5912 68.1833 15.1768 67.5426 15.1458L61.8376 14.8676L59.8103 9.52793C59.5827 8.92809 59.0208 8.54037 58.3792 8.54037C57.7375 8.54037 57.1756 8.92795 56.948 9.52779L54.9207 14.8676L49.2161 15.1456C48.5749 15.1766 48.0326 15.5912 47.8343 16.2017C47.636 16.812 47.8311 17.466 48.3312 17.8676ZM55.4345 17.0014C56.0426 16.9717 56.5752 16.5848 56.7911 16.0157L58.3791 11.8332L59.9669 16.0155C60.1829 16.5848 60.7155 16.9717 61.3234 17.0012L65.7919 17.2191L62.3051 20.0216C61.8303 20.403 61.6268 21.0291 61.7866 21.6164L62.9603 25.9335L59.2171 23.483C58.9623 23.3165 58.6706 23.2332 58.3788 23.2332C58.0869 23.2332 57.795 23.3166 57.5404 23.4832L53.7975 25.9335L54.9711 21.6167C55.1308 21.0295 54.9276 20.4035 54.4529 20.0219L50.9659 17.2191L55.4345 17.0014ZM0.572443 17.8676L5.02443 21.4459L3.52597 26.9577C3.35778 27.5765 3.58432 28.2202 4.10357 28.5978C4.62296 28.9746 5.30474 28.9912 5.84151 28.64L10.6204 25.5117L15.3995 28.6401C15.6572 28.8087 15.9481 28.8925 16.2385 28.8925C16.5534 28.8925 16.8675 28.794 17.1372 28.5978C17.6564 28.2209 17.8831 27.5771 17.7148 26.9577L16.2163 21.4461L20.668 17.8679C21.168 17.4664 21.3633 16.8126 21.165 16.201C20.9664 15.5909 20.4241 15.1766 19.7838 15.1456L14.0788 14.8675L12.0515 9.52793C11.8239 8.92809 11.2621 8.54037 10.6204 8.54037C9.97868 8.54037 9.41684 8.92795 9.18922 9.52779L7.16194 14.8676L1.45731 15.1456C0.816234 15.1766 0.273937 15.5912 0.0758317 16.201C-0.122948 16.8116 0.0720582 17.4659 0.572443 17.8676ZM7.67567 17.0014C8.28387 16.9717 8.81646 16.5848 9.03236 16.0157L10.6203 11.8332L12.2081 16.0155C12.4241 16.5848 12.9567 16.9717 13.5647 17.0012L18.0331 17.2191L14.5463 20.0216C14.0715 20.403 13.868 21.0291 14.0278 21.6164L15.2015 25.9335L11.4583 23.483C11.2036 23.3165 10.9118 23.2332 10.62 23.2332C10.3281 23.2332 10.0362 23.3166 9.78165 23.4832L6.03867 25.9335L7.21235 21.6167C7.37204 21.0295 7.16882 20.4035 6.69417 20.0219L3.20711 17.2191L7.67567 17.0014ZM68.83 57.2664C68.0714 54.8166 66.5177 52.6169 64.4548 51.0723C63.4673 50.3328 62.3919 49.7568 61.2574 49.349C62.8302 48.1146 63.8437 46.1982 63.8437 44.0483C63.8437 40.3333 60.8213 37.3111 57.1065 37.3111C53.3915 37.3111 50.3691 40.3333 50.3691 44.0483C50.3691 46.1956 51.3802 48.1101 52.9499 49.3447C50.8461 50.0956 48.9823 51.415 47.555 53.1928C46.8879 52.2595 46.1184 51.3927 45.2533 50.6104C43.5103 49.0341 41.4646 47.8764 39.2616 47.1922C41.5978 45.6435 43.1422 42.9917 43.1422 39.985C43.1422 35.2197 39.2651 31.3427 34.4998 31.3427C29.7345 31.3427 25.8574 35.2197 25.8574 39.985C25.8574 42.9917 27.4017 45.6435 29.7379 47.1922C27.5347 47.8763 25.4891 49.0341 23.7461 50.6104C22.881 51.3927 22.1115 52.2595 21.4445 53.1927C20.0174 51.4147 18.1536 50.0953 16.0496 49.3443C17.6192 48.1097 18.6304 46.1952 18.6304 44.0479C18.6304 40.3329 15.608 37.3107 11.8932 37.3107C8.17821 37.3107 5.15582 40.3329 5.15582 44.0479C5.15582 46.1977 6.16926 48.1142 7.74197 49.3486C6.60752 49.7564 5.53209 50.3324 4.54439 51.0719C2.48153 52.6164 0.92782 54.8162 0.169224 57.2658C-0.181301 58.3973 0.0128961 59.5457 0.715968 60.4995C1.41891 61.4531 2.45849 61.9782 3.64308 61.9782H18.5472V63.9239C18.5472 66.723 20.8243 69.0001 23.6234 69.0001H45.3759C48.1749 69.0001 50.4522 66.723 50.4523 63.9239V61.9787H65.3563C66.541 61.9787 67.5806 61.4535 68.2834 60.5001C68.9863 59.5462 69.1805 58.3977 68.83 57.2664ZM57.1065 39.4673C59.6324 39.4673 61.6874 41.5224 61.6874 44.0483C61.6874 46.5743 59.6324 48.6294 57.1065 48.6294C54.5804 48.6294 52.5254 46.5743 52.5254 44.0483C52.5254 41.5224 54.5804 39.4673 57.1065 39.4673ZM28.0137 39.985C28.0137 36.4086 30.9234 33.499 34.4998 33.499C38.0762 33.499 40.986 36.4086 40.986 39.985C40.986 43.5603 38.0781 46.4691 34.5033 46.471C34.5021 46.471 34.5008 46.471 34.4997 46.471C34.4986 46.471 34.4974 46.471 34.4962 46.471C30.9214 46.4689 28.0137 43.5602 28.0137 39.985ZM11.8932 39.4668C14.4191 39.4668 16.4741 41.5218 16.4741 44.0477C16.4741 46.5738 14.4191 48.6288 11.8932 48.6288C9.36711 48.6288 7.31207 46.5738 7.31207 44.0477C7.31207 41.5218 9.36711 39.4668 11.8932 39.4668ZM18.6872 59.8218H3.64321C3.14701 59.8218 2.74621 59.6194 2.45175 59.2199C2.15715 58.8205 2.08236 58.3776 2.22912 57.9037C3.54766 53.6457 7.43147 50.7851 11.8932 50.7851C15.2681 50.7851 18.3425 52.4157 20.2334 55.1761C19.4859 56.6284 18.9623 58.1937 18.6872 59.8218ZM48.296 63.9238C48.2959 65.5338 46.986 66.8438 45.3759 66.8438H23.6234C22.0134 66.8438 20.7035 65.5338 20.7035 63.9238V60.9585C21.484 53.9254 27.4035 48.629 34.4962 48.6272C34.4974 48.6272 34.4986 48.6273 34.4998 48.6273C34.501 48.6273 34.5023 48.6272 34.5033 48.6272C41.5959 48.6291 47.5152 53.9254 48.296 60.9585V63.9238ZM66.5478 59.2206C66.2533 59.6199 65.8526 59.8223 65.3563 59.8223H50.3124C50.0372 58.1941 49.5137 56.6288 48.7662 55.1764C50.6573 52.4161 53.7315 50.7856 57.1063 50.7856C61.568 50.7856 65.4519 53.6464 66.7704 57.9043C66.9172 58.378 66.8422 58.8209 66.5478 59.2206Z" fill="#267C8F"/>
</g>
<defs>
<clipPath id="clip0_2_133">
<rect width="69" height="69" fill="white"/>
</clipPath>
</defs>
</svg>
