<svg width="59" height="59" viewBox="0 0 59 59" fill="none" xmlns="http://www.w3.org/2000/svg">
<path d="M6.87982 33.4459H10.8112V40.3262C10.8112 40.8687 11.2513 41.3087 11.7942 41.3087C12.0549 41.3087 12.3047 41.2051 12.4889 41.0209L20.0638 33.4459H21.6224V31.4805H19.6569C19.3962 31.4805 19.146 31.5841 18.9618 31.7683L12.7767 37.9534V32.4634C12.7767 31.9205 12.337 31.4805 11.7942 31.4805H6.87982C4.167 31.4772 1.96913 29.2789 1.96589 26.5661V6.90961C1.96913 4.19678 4.16741 1.99851 6.87982 1.99527H38.3309C41.0433 1.99851 43.2416 4.19678 43.2448 6.90961V21.6522H45.2107V6.90961C45.2063 3.11182 42.1287 0.0338336 38.3305 0.0297852H6.87982C3.08203 0.0338336 0.00445323 3.11182 0 6.90961V26.5661C0.00445323 30.3639 3.08203 33.4419 6.87982 33.4459Z" fill="#267C8F"/>
<path d="M52.0905 23.6177H30.4681C26.6699 23.6221 23.5923 26.6997 23.5879 30.4975V44.2571C23.5923 48.0553 26.6699 51.1329 30.4681 51.1374H40.8725L48.447 58.7119C48.8312 59.0957 49.4534 59.0957 49.8372 58.7119C50.0214 58.5277 50.1246 58.2775 50.1246 58.0172V51.1374H52.0905C55.8883 51.1329 58.9659 48.0553 58.9703 44.2571V30.4975C58.9659 26.6997 55.8883 23.6221 52.0905 23.6177ZM57.0049 44.2571C57.0016 46.97 54.8033 49.1682 52.0905 49.1715H49.1421C48.5992 49.1715 48.1591 49.6115 48.1591 50.1544V55.6444L41.974 49.4593C41.7898 49.2751 41.54 49.1715 41.2793 49.1715H30.4681C27.7553 49.1682 25.557 46.97 25.5538 44.2571V30.4975C25.557 27.7851 27.7553 25.5868 30.4681 25.5836H52.0905C54.8033 25.5864 57.0012 27.7851 57.0045 30.4975V44.2571H57.0049Z" fill="#267C8F"/>
<path d="M7.86276 7.89258H27.5197V9.85807H7.86276V7.89258Z" fill="#267C8F"/>
<path d="M31.4507 7.89258H37.348V9.85807H31.4507V7.89258Z" fill="#267C8F"/>
<path d="M7.86276 13.7894H37.3479V15.7549H7.86276V13.7894Z" fill="#267C8F"/>
<path d="M21.6224 19.6863H37.3479V21.6522H21.6224V19.6863Z" fill="#267C8F"/>
<path d="M7.86276 19.6863H17.691V21.6522H7.86276V19.6863Z" fill="#267C8F"/>
<path d="M7.86276 25.5836H21.6224V27.5491H7.86276V25.5836Z" fill="#267C8F"/>
<path d="M29.4852 30.4975H43.2448V32.4634H29.4852V30.4975Z" fill="#267C8F"/>
<path d="M47.1762 30.4975H53.0735V32.4634H47.1762V30.4975Z" fill="#267C8F"/>
<path d="M29.4852 36.3948H53.0731V38.3603H29.4852V36.3948Z" fill="#267C8F"/>
<path d="M29.4852 42.2917H53.0731V44.2572H29.4852V42.2917Z" fill="#267C8F"/>
</svg>
