<svg width="66" height="66" viewBox="0 0 66 66" fill="none" xmlns="http://www.w3.org/2000/svg">
<g clip-path="url(#clip0_2_180)">
<path d="M32.0765 65.8456C29.9748 64.7337 24.0596 57.1731 18.9288 48.9181C15.1055 42.7669 8.69159 31.3665 8.69159 24.1256C8.69159 10.8227 19.5963 0 33.0001 0C46.4038 0 57.3085 10.8227 57.3085 24.1258C57.3085 31.1097 51.2426 41.7428 46.1541 49.4331C40.7998 57.5251 34.7378 64.9999 33.6218 65.8144C33.3138 66.0391 32.5046 66.0721 32.0765 65.8456ZM33.0001 2.11378C20.7618 2.11378 10.8054 11.9883 10.8054 24.1258C10.8054 29.0749 14.4732 37.7891 20.868 48.0337C23.3442 52.0003 26.0625 55.9161 28.5225 59.0598C30.7731 61.9357 32.1176 63.2778 32.7344 63.7618C34.2411 62.1779 39.3592 55.8846 44.4585 48.1651C51.4822 37.5324 55.1947 29.2197 55.1947 24.1259C55.1947 11.9883 45.2382 2.11378 33.0001 2.11378Z" fill="#267C8F"/>
<path d="M33.0001 36.9453C26.0466 36.9453 20.3896 31.329 20.3896 24.4257C20.3896 17.5223 26.0466 11.906 33.0001 11.906C34.666 11.906 36.2851 12.2237 37.8126 12.8502C38.3527 13.0718 38.6108 13.6891 38.3893 14.2292C38.1676 14.7693 37.5506 15.0274 37.0103 14.8058C35.7387 14.2843 34.3895 14.0198 33.0001 14.0198C27.2121 14.0198 22.5034 18.6878 22.5034 24.4257C22.5034 30.1635 27.2123 34.8315 33.0001 34.8315C38.7879 34.8315 43.4967 30.1635 43.4967 24.4257C43.4967 22.5564 42.9915 20.7239 42.0355 19.1261C41.7358 18.6252 41.8991 17.9763 42.3999 17.6766C42.9013 17.3771 43.5498 17.5402 43.8496 18.041C45.0016 19.9666 45.6105 22.1745 45.6105 24.4257C45.6105 31.3291 39.9535 36.9453 33.0001 36.9453Z" fill="#267C8F"/>
<path d="M41.0106 17.2226C40.7484 17.2226 40.4856 17.1256 40.281 16.9301C40.0252 16.6859 39.7543 16.4521 39.4756 16.2353C39.015 15.8767 38.9321 15.2128 39.2907 14.7521C39.6492 14.2917 40.3132 14.2087 40.7739 14.5671C41.1084 14.8275 41.4337 15.1081 41.7407 15.4011C42.4148 16.0449 41.9462 17.2226 41.0106 17.2226Z" fill="#267C8F"/>
</g>
<defs>
<clipPath id="clip0_2_180">
<rect width="66" height="66" fill="white"/>
</clipPath>
</defs>
</svg>
