<svg width="47" height="59" viewBox="0 0 47 59" fill="none" xmlns="http://www.w3.org/2000/svg">
<path d="M46.1343 24.2253C47.3035 22.4342 47.0876 20.1038 45.6092 18.558C44.9577 17.8768 44.6854 16.9196 44.8806 15.9975C45.3239 13.905 44.2807 11.8099 42.3437 10.9027C41.49 10.5028 40.8904 9.70862 40.7393 8.77822C40.3967 6.66689 38.667 5.09014 36.5332 4.94379C35.5928 4.87926 34.7466 4.35541 34.2697 3.54231C33.1874 1.69752 31.0056 0.85205 28.9625 1.4863C28.0622 1.76586 27.0841 1.58287 26.3456 0.99713C24.67 -0.332214 22.3297 -0.332214 20.6542 0.99713C19.9157 1.5831 18.9374 1.76586 18.0373 1.4863C15.9947 0.851935 13.8122 1.69741 12.7301 3.54231C12.2531 4.35541 11.4071 4.87926 10.4666 4.94379C8.33274 5.09014 6.60318 6.66701 6.26048 8.77822C6.10952 9.70862 5.50972 10.5028 4.65618 10.9027C2.71932 11.81 1.67611 13.9051 2.11918 15.9975C2.31451 16.9196 2.04209 17.8769 1.39067 18.5582C-0.0875551 20.1039 -0.30362 22.4344 0.865548 24.2255C1.38076 25.0147 1.4726 26.0058 1.11111 26.8763C0.29099 28.8517 0.931577 31.1028 2.66862 32.3506C3.43424 32.9006 3.87778 33.7915 3.85519 34.7337C3.80414 36.8719 5.21461 38.7396 7.28514 39.2757C7.89634 39.4339 8.42734 39.7876 8.80785 40.2699L4.0459 51.7661C3.37858 53.3771 4.88896 55.0362 6.55444 54.5249L11.7679 52.925C11.9202 52.8785 12.0845 52.9466 12.1591 53.0871L14.7142 57.9048C15.5315 59.446 17.7723 59.3372 18.4388 57.7279L23.402 45.7458C23.4672 45.7436 23.5323 45.7436 23.5974 45.7458L28.5606 57.7279C29.2284 59.3397 31.469 59.4438 32.2854 57.9049L34.8404 53.0871C34.9149 52.9465 35.0793 52.8784 35.2317 52.9251L40.445 54.525C42.1114 55.0365 43.6206 53.3763 42.9536 51.7662L38.1916 40.27C38.5721 39.7877 39.1031 39.434 39.7143 39.2758C41.7848 38.7398 43.1952 36.8721 43.1442 34.7338C43.1216 33.7916 43.5653 32.9007 44.3309 32.3508C46.0681 31.1029 46.7084 28.8518 45.8883 26.8765C45.5274 26.0055 45.6192 25.0145 46.1343 24.2253ZM16.8422 57.0663C16.7338 57.3281 16.3736 57.3441 16.2414 57.0948L13.6863 52.2771C13.2241 51.4056 12.2042 50.9834 11.2612 51.2726L6.04775 52.8725C5.7773 52.9553 5.53473 52.6889 5.64305 52.4274L9.86777 42.2276C10.821 43.5334 12.4145 44.2611 14.0919 44.0652C15.0281 43.956 15.9561 44.3153 16.5743 45.0268C17.4712 46.0593 18.7349 46.6074 20.0243 46.6072C20.4321 46.6072 20.8423 46.5502 21.2445 46.4385L16.8422 57.0663ZM40.9524 52.8724L35.739 51.2725C34.7961 50.9833 33.7759 51.4056 33.3138 52.277L30.7587 57.0947C30.6268 57.3437 30.2661 57.3276 30.1578 57.0661L25.7564 46.4405C27.4295 46.9049 29.2455 46.3852 30.4258 45.0266C31.0439 44.315 31.9716 43.9555 32.9082 44.0649C34.5873 44.2612 36.1797 43.5332 37.1323 42.2275L41.3573 52.4269C41.4658 52.6894 41.2219 52.9548 40.9524 52.8724ZM44.6871 23.2806C43.8595 24.5485 43.712 26.1403 44.2925 27.5388C44.803 28.7685 44.4044 30.1697 43.323 30.9467C42.0932 31.83 41.3806 33.2611 41.4168 34.7747C41.4486 36.1059 40.5705 37.2686 39.2815 37.6022C38.0758 37.9144 37.0633 38.6992 36.4561 39.7604C36.4545 39.7635 36.4528 39.7665 36.4512 39.7695C36.3225 39.9957 36.2109 40.2337 36.1212 40.4832C35.67 41.7359 34.4321 42.5036 33.1088 42.3485C31.6051 42.1727 30.1141 42.7503 29.1211 43.8934C28.248 44.8984 26.8158 45.1661 25.6383 44.5444C25.2378 44.3329 24.8138 44.1861 24.3807 44.1011C24.3772 44.1003 24.3736 44.0995 24.37 44.0988C23.7948 43.9874 23.2036 43.9875 22.6284 44.0993C22.6263 44.0997 22.6243 44.1002 22.6223 44.1005C22.1882 44.1855 21.7633 44.3325 21.3619 44.5444C20.1845 45.1662 18.7523 44.8984 17.8792 43.8934C17.0037 42.8856 15.7415 42.3175 14.4243 42.3175C14.2475 42.3175 14.0694 42.3278 13.8914 42.3486C12.5694 42.5034 11.3301 41.7362 10.879 40.4833C10.7892 40.2341 10.6779 39.9964 10.5493 39.7703C10.5473 39.7666 10.5454 39.7631 10.5434 39.7594C9.93611 38.6987 8.924 37.9143 7.71865 37.6022C6.42964 37.2685 5.55167 36.1059 5.58347 34.7749C5.61966 33.2611 4.90705 31.8302 3.67727 30.9467C2.59591 30.1699 2.19708 28.7685 2.70768 27.5387C3.28824 26.1402 3.14074 24.5484 2.31312 23.2805C1.58542 22.1656 1.71978 20.7148 2.64016 19.7526C3.6866 18.6583 4.12415 17.1206 3.81048 15.6394C3.53461 14.3368 4.18407 13.0326 5.38976 12.4677C6.76094 11.8254 7.7243 10.5496 7.96698 9.05501C8.18028 7.74065 9.25703 6.75908 10.5853 6.66804C12.0959 6.56445 13.4552 5.72289 14.2213 4.41671C14.8951 3.26828 16.2539 2.74212 17.5251 3.13692C18.9712 3.58599 20.5426 3.29225 21.7288 2.35113C22.7717 1.52352 24.2287 1.52352 25.272 2.35113C26.4581 3.29214 28.0293 3.5861 29.4756 3.13692C30.7472 2.74201 32.1058 3.2684 32.7794 4.41671C33.5454 5.72278 34.9047 6.56433 36.4154 6.66804C37.7437 6.75919 38.8204 7.74076 39.0337 9.05501C39.2764 10.5496 40.2399 11.8254 41.6109 12.4678C42.8167 13.0326 43.4661 14.3368 43.1902 15.6394C42.8765 17.1206 43.314 18.6583 44.3605 19.7526C45.2804 20.7148 45.4148 22.1656 44.6871 23.2806Z" fill="#267C8F"/>
<path d="M7.13107 22.1399C7.60434 22.1981 8.03612 21.8613 8.09432 21.3877C9.04869 13.6307 15.6718 7.78132 23.5 7.78132C31.332 7.78132 37.9553 13.6338 38.9066 21.395C38.9603 21.833 39.333 22.1542 39.7633 22.1542C39.7984 22.1542 39.8338 22.152 39.8695 22.1476C40.3432 22.0895 40.6802 21.6584 40.6222 21.1847C39.5648 12.5581 32.2039 6.05292 23.5 6.05292C14.8001 6.05292 7.43967 12.5547 6.37882 21.1766C6.32063 21.6504 6.65734 22.0816 7.13107 22.1399Z" fill="#267C8F"/>
<path d="M39.8696 24.4597C39.3973 24.402 38.9648 24.7387 38.9067 25.2124C37.9558 32.9739 31.3324 38.8267 23.5 38.8267C15.6712 38.8267 9.04811 32.9768 8.09409 25.2192C8.03589 24.7456 7.60492 24.409 7.13084 24.4669C6.65723 24.5251 6.32028 24.9564 6.37859 25.4302C7.43898 34.0528 14.7995 40.555 23.4999 40.555C32.2042 40.555 39.5652 34.0495 40.6221 25.4225C40.6803 24.9488 40.3433 24.5177 39.8696 24.4597Z" fill="#267C8F"/>
<path d="M35.7032 19.7375C35.4836 19.0615 34.8827 18.6082 34.1723 18.5827L27.3964 18.3397L25.0713 11.9704C24.8276 11.3028 24.2109 10.8713 23.5001 10.8713C22.7893 10.8713 22.1726 11.3028 21.9289 11.9704L19.6038 18.3397L12.8279 18.5827C12.1176 18.6082 11.5167 19.0615 11.297 19.7375C11.0774 20.4134 11.297 21.1334 11.8567 21.5715L17.1956 25.751L15.333 32.2705C15.1377 32.9539 15.3831 33.6655 15.9583 34.0833C16.5327 34.5007 17.2853 34.515 17.8754 34.1177L23.5 30.3314L29.1247 34.1175C29.7141 34.5143 30.4667 34.501 31.0419 34.0831C31.617 33.6654 31.8623 32.9538 31.667 32.2702L29.8044 25.7509L35.1433 21.5714C35.7031 21.1333 35.9228 20.4134 35.7032 19.7375ZM28.7096 24.413C28.1709 24.8347 27.9442 25.5323 28.1323 26.1898L29.9634 32.5985L24.4342 28.8768C24.1504 28.6858 23.8252 28.5902 23.5 28.5902C23.1748 28.5902 22.8496 28.6858 22.5659 28.8767L17.0366 32.5984L18.8677 26.1898C19.0556 25.532 18.8291 24.8347 18.2905 24.413L13.042 20.3044L19.7031 20.0654C20.3867 20.0409 20.9799 19.6098 21.2144 18.9674L23.5001 12.7062L25.7858 18.9674C26.0204 19.6098 26.6135 20.0409 27.2971 20.0653L33.958 20.3043L28.7096 24.413Z" fill="#267C8F"/>
</svg>
