<svg width="71" height="71" viewBox="0 0 71 71" fill="none" xmlns="http://www.w3.org/2000/svg">
<path d="M35.5 37.8724C36.29 37.8459 37.0432 37.5325 37.6189 36.991C37.7862 36.8471 37.8894 36.6426 37.9059 36.4225C37.9224 36.2024 37.8508 35.9848 37.7068 35.8176C37.5629 35.6503 37.3584 35.5471 37.1383 35.5306C36.9183 35.5141 36.7007 35.5857 36.5334 35.7297C36.4054 35.8783 36.2467 35.9975 36.0684 36.0793C35.8901 36.1611 35.6962 36.2034 35.5 36.2034C35.3038 36.2034 35.11 36.1611 34.9316 36.0793C34.7533 35.9975 34.5947 35.8783 34.4666 35.7297C34.3838 35.6584 34.2878 35.6041 34.184 35.57C34.0802 35.5358 33.9707 35.5224 33.8617 35.5306C33.7527 35.5388 33.6465 35.5683 33.5489 35.6175C33.4514 35.6668 33.3645 35.7348 33.2932 35.8176C33.2219 35.9004 33.1676 35.9964 33.1335 36.1002C33.0993 36.204 33.086 36.3135 33.0941 36.4225C33.1023 36.5315 33.1318 36.6378 33.1811 36.7353C33.2303 36.8328 33.2983 36.9197 33.3811 36.991C33.9568 37.5325 34.7101 37.8459 35.5 37.8724Z" fill="#267C8F"/>
<path d="M39.6291 40.84H39.6197C38.9807 40.9712 38.3237 40.99 37.6782 40.8955C37.5174 40.8727 37.3599 40.84 37.1735 40.8062C36.9089 40.7453 36.6356 40.7324 36.3664 40.7679C36.0847 40.8174 35.8169 40.9271 35.5815 41.0896C35.5561 41.1038 35.5275 41.1113 35.4983 41.1113C35.4692 41.1113 35.4405 41.1038 35.4151 41.0896C35.1799 40.9272 34.9123 40.8174 34.6308 40.7679C34.3615 40.7323 34.0879 40.7453 33.8232 40.8062C33.6368 40.8422 33.4793 40.8727 33.3184 40.8955C32.673 40.99 32.016 40.9712 31.377 40.84H31.367C31.2222 40.8112 31.072 40.8372 30.9452 40.9127C30.8184 40.9883 30.7241 41.1082 30.6805 41.2492C30.637 41.3902 30.6472 41.5423 30.7092 41.6763C30.7712 41.8102 30.8807 41.9164 31.0164 41.9743C31.7808 42.3036 32.6079 42.4618 33.4399 42.438C33.6462 42.4319 33.8548 42.4142 34.0334 42.4003C34.2155 42.3893 34.3951 42.4467 34.537 42.5612C34.8079 42.7258 35.1176 42.8155 35.4345 42.8213H35.5588C35.8757 42.8155 36.1854 42.7258 36.4563 42.5612C36.5984 42.4466 36.7782 42.3893 36.9605 42.4003C37.1385 42.4142 37.3488 42.4319 37.5534 42.438C38.3854 42.4618 39.2125 42.3036 39.9769 41.9743C40.1128 41.9164 40.2224 41.8102 40.2845 41.6762C40.3467 41.5421 40.3569 41.3898 40.3132 41.2487C40.2695 41.1076 40.175 40.9877 40.048 40.9122C39.9211 40.8367 39.7706 40.811 39.6258 40.84H39.6291Z" fill="#267C8F"/>
<path d="M36.0325 43.8419C35.8686 43.9293 35.6857 43.975 35.5 43.975C35.3142 43.975 35.1314 43.9293 34.9675 43.8419C34.8685 43.7884 34.7596 43.7554 34.6475 43.7452C34.5354 43.7349 34.4224 43.7475 34.3153 43.7822C34.2082 43.8168 34.1093 43.8729 34.0245 43.9469C33.9397 44.0209 33.8708 44.1114 33.8219 44.2128C33.7731 44.3142 33.7454 44.4245 33.7404 44.5369C33.7354 44.6494 33.7533 44.7617 33.793 44.867C33.8327 44.9724 33.8933 45.0686 33.9712 45.1498C34.0492 45.231 34.1428 45.2956 34.2464 45.3396C34.6362 45.5344 35.0659 45.6358 35.5016 45.6358C35.9374 45.6358 36.3671 45.5344 36.7569 45.3396C36.945 45.2378 37.0867 45.0675 37.1526 44.864C37.2185 44.6605 37.2035 44.4395 37.1107 44.2468C37.0179 44.0541 36.8545 43.9045 36.6543 43.8291C36.4542 43.7537 36.2327 43.7583 36.0358 43.8419H36.0325Z" fill="#267C8F"/>
<path d="M40.3513 25.4912L40.3785 25.4862C41.7841 25.279 43.204 25.1851 44.6246 25.2056C45.358 25.1841 46.0921 25.2061 46.8229 25.2716C47.542 25.3299 48.2533 25.4617 48.9456 25.6649L48.97 25.6726C49.0604 25.7011 49.1582 25.6951 49.2444 25.6557C49.3306 25.6164 49.3992 25.5465 49.4369 25.4596C49.4746 25.3726 49.4788 25.2748 49.4486 25.185C49.4184 25.0952 49.356 25.0197 49.2735 24.9732C48.5656 24.594 47.8122 24.3071 47.0314 24.1195C46.2683 23.9195 45.4936 23.7665 44.7117 23.6613C43.9219 23.5575 43.1227 23.547 42.3304 23.6303C41.5079 23.7039 40.7031 23.9121 39.9481 24.2465C39.8019 24.3142 39.6856 24.4331 39.6211 24.5807C39.5566 24.7283 39.5484 24.8944 39.598 25.0476C39.6477 25.2008 39.7517 25.3306 39.8905 25.4123C40.0293 25.4941 40.1932 25.5221 40.3513 25.4912Z" fill="#267C8F"/>
<path d="M47.5301 30.1689C47.4123 29.978 47.2496 29.8187 47.0563 29.705C46.863 29.5912 46.6448 29.5263 46.4207 29.516C46.0189 29.4985 45.6185 29.5735 45.2503 29.7351L45.0096 29.8394L44.8315 29.9215C44.7084 29.972 44.588 30.0258 44.4604 30.0691C44.2136 30.1711 43.9568 30.2543 43.7016 30.3348C43.2041 30.4929 42.691 30.5974 42.1712 30.6465C41.705 30.7002 41.2328 30.6562 40.7845 30.5173L40.7074 30.4912C40.576 30.4472 40.4334 30.4504 40.3041 30.5003C40.1748 30.5502 40.067 30.6436 39.9992 30.7645C39.9314 30.8854 39.908 31.0261 39.9329 31.1624C39.9577 31.2987 40.0294 31.4221 40.1355 31.5113C40.7214 31.9739 41.4458 32.2261 42.1923 32.2274C42.8721 32.243 43.5498 32.1453 44.1975 31.9384C44.5137 31.8378 44.8228 31.716 45.1227 31.5739C45.2725 31.5029 45.4184 31.4181 45.5665 31.3365L45.7839 31.2051C45.8527 31.1612 45.886 31.133 45.9392 31.0941C46.1101 30.9801 46.2922 30.884 46.4828 30.8074C46.6537 30.7276 46.8438 30.6982 47.0309 30.7225L47.134 30.7364C47.2147 30.7473 47.2968 30.7325 47.3687 30.6942C47.4138 30.6703 47.4537 30.6378 47.4863 30.5985C47.5188 30.5592 47.5433 30.5138 47.5583 30.465C47.5733 30.4162 47.5785 30.365 47.5736 30.3142C47.5688 30.2633 47.554 30.214 47.5301 30.1689Z" fill="#267C8F"/>
<path d="M31.0459 30.8661C30.9956 30.7165 30.8879 30.593 30.7465 30.5228C30.6051 30.4526 30.4417 30.4414 30.2921 30.4917L30.2161 30.5173C29.7678 30.6562 29.2955 30.7002 28.8293 30.6465C28.3096 30.5974 27.7965 30.4929 27.299 30.3348C27.0438 30.2543 26.787 30.1684 26.5401 30.0691C26.4126 30.0258 26.2922 29.972 26.1691 29.9215L25.991 29.8394L25.7503 29.7351C25.3821 29.5735 24.9816 29.4985 24.5799 29.516C24.3558 29.5263 24.1376 29.5912 23.9443 29.705C23.7509 29.8187 23.5883 29.978 23.4705 30.1689C23.4368 30.2324 23.4213 30.304 23.4256 30.3758C23.43 30.4475 23.454 30.5167 23.4951 30.5757C23.5362 30.6347 23.5928 30.6812 23.6586 30.7101C23.7244 30.7391 23.797 30.7493 23.8682 30.7397L23.9714 30.7258C24.1584 30.7015 24.3485 30.7309 24.5194 30.8107C24.71 30.8873 24.8922 30.9834 25.063 31.0975C25.1185 31.1346 25.1495 31.1629 25.2183 31.2084L25.4358 31.3399C25.5822 31.4214 25.7281 31.5063 25.8795 31.5773C26.1794 31.7193 26.4885 31.8411 26.8047 31.9417C27.4525 32.1487 28.1301 32.2463 28.8099 32.2307C29.5568 32.2291 30.2815 31.9762 30.8673 31.5129C30.9584 31.4354 31.0241 31.3323 31.0559 31.217C31.0878 31.1017 31.0843 30.9794 31.0459 30.8661Z" fill="#267C8F"/>
<path d="M24.1777 25.2716C24.9083 25.2061 25.6422 25.184 26.3754 25.2056C27.796 25.1851 29.216 25.279 30.6215 25.4862L30.6493 25.4918C30.8071 25.5218 30.9705 25.4931 31.1087 25.4112C31.247 25.3293 31.3505 25.1997 31.4 25.0468C31.4494 24.8939 31.4413 24.7282 31.3772 24.5809C31.3132 24.4335 31.1975 24.3146 31.052 24.2465C30.2961 23.9118 29.4903 23.7036 28.6668 23.6303C27.8746 23.547 27.0753 23.5575 26.2855 23.6613C25.5037 23.7665 24.729 23.9195 23.9658 24.1195C23.1851 24.3071 22.4316 24.594 21.7238 24.9732C21.6419 25.02 21.5802 25.0954 21.5504 25.185C21.5207 25.2745 21.525 25.3719 21.5626 25.4585C21.6002 25.545 21.6683 25.6147 21.7541 25.6541C21.8398 25.6935 21.937 25.6999 22.0272 25.6721L22.0516 25.6649C22.745 25.4614 23.4574 25.3296 24.1777 25.2716Z" fill="#267C8F"/>
<path d="M62.5516 69.3881C61.6759 67.0949 60.2937 65.029 58.5079 63.3448C56.8438 61.8039 53.8297 60.7405 51.0357 59.8148C51.3674 58.1965 51.8694 56.618 52.5334 55.1055C52.7614 54.575 53.1215 54.1119 53.5795 53.7603C55.0505 52.606 55.7916 51.2792 55.7677 48.5607C55.7605 47.6765 54.6328 41.0353 52.2127 40.5876C51.8021 40.5095 51.3773 40.5607 50.9969 40.7341C50.9492 40.5993 50.9053 40.4711 50.8599 40.3402C53.427 39.8543 55.8521 37.1303 56.2664 34.6486C56.4386 33.8676 56.4329 33.0579 56.2498 32.2794C56.0667 31.5009 55.7108 30.7735 55.2086 30.1512C56.3246 24.7707 56.8294 17.3379 54.6733 13.4118C50.3751 5.59183 43.0293 0.732212 35.5 0.728884C27.9707 0.725555 20.625 5.59183 16.3283 13.4118C14.1723 17.3362 14.677 24.7729 15.7931 30.1512C15.2908 30.7735 14.935 31.5009 14.7519 32.2794C14.5688 33.0579 14.5631 33.8676 14.7353 34.6486C15.1469 37.1303 17.5747 39.8543 20.1418 40.3402C20.0963 40.4711 20.052 40.5993 20.0048 40.7341C19.6249 40.5603 19.2004 40.5091 18.79 40.5876C16.3688 41.0353 15.2401 47.6765 15.2339 48.5607C15.2101 51.2787 15.9512 52.6066 17.4233 53.7609C17.8819 54.112 18.2427 54.575 18.4711 55.1055C19.1358 56.6168 19.6378 58.1945 19.9688 59.812C17.1826 60.7317 14.1701 61.79 12.4955 63.3448C10.7097 65.0289 9.32757 67.0948 8.45234 69.3881C8.37477 69.5912 8.37978 69.8166 8.46631 70.0161C8.55284 70.2155 8.714 70.3732 8.9153 70.4553C9.11661 70.5375 9.34207 70.5375 9.54343 70.4555C9.74479 70.3735 9.90605 70.216 9.99271 70.0166C10.7786 67.9491 12.0209 66.0857 13.627 64.5651C14.9267 63.3587 17.4926 62.3979 19.8578 61.6025C19.2804 63.4884 17.4599 67.7301 16.7344 69.3648C16.6465 69.5662 16.6418 69.7943 16.7215 69.9991C16.8011 70.2039 16.9585 70.3689 17.1594 70.4581C17.3603 70.5473 17.5883 70.5533 17.7936 70.475C17.9989 70.3966 18.1649 70.2402 18.2553 70.0399C18.3763 69.767 21.2207 63.347 21.6306 61.4167C22.1409 59.0082 19.7447 53.8175 19.368 53.0209C18.7244 51.0564 18.7635 48.9321 19.479 46.9926L19.9471 45.7362C20.5767 44.0489 21.2895 42.1363 21.8125 40.6109C21.8402 40.5227 21.8944 40.4452 21.9679 40.389C22.0395 40.3425 22.1215 40.3145 22.2067 40.3077C22.2918 40.3008 22.3773 40.3152 22.4554 40.3497C22.5269 40.3834 22.5869 40.4373 22.6281 40.5047C22.6693 40.5721 22.6899 40.6501 22.6873 40.7291C22.6971 40.928 22.6936 41.1274 22.6767 41.3259C22.4868 43.4092 22.183 45.4806 21.7665 47.5306C21.4564 48.9212 22.6041 50.3257 23.714 51.6836C24.0685 52.1162 24.4024 52.5256 24.652 52.8917C27.3566 56.8732 26.3482 59.1286 25.6809 60.6202L25.5522 60.9119C24.9748 62.2432 23.5271 68.7824 23.364 69.524C23.3398 69.631 23.3369 69.7417 23.3557 69.8498C23.3744 69.9579 23.4143 70.0613 23.4731 70.1539C23.532 70.2465 23.6085 70.3265 23.6984 70.3895C23.7883 70.4524 23.8897 70.4969 23.9969 70.5204C24.104 70.544 24.2148 70.5461 24.3227 70.5267C24.4307 70.5073 24.5338 70.4667 24.626 70.4073C24.7183 70.3479 24.7978 70.2708 24.8602 70.1805C24.9225 70.0902 24.9664 69.9885 24.9892 69.8812C25.616 67.034 26.6899 62.4706 27.0787 61.5737L27.1997 61.3002C27.6939 60.3017 27.992 59.2177 28.0777 58.1069C30.418 56.1372 30.7824 53.4525 30.9166 51.4506C32.1968 52.028 33.5388 52.457 34.9165 52.7292C35.1049 52.7747 35.2974 52.8005 35.4911 52.8063C35.7089 52.7991 35.9253 52.7703 36.1373 52.7203C37.4984 52.4507 38.8242 52.0264 40.0889 51.4556C40.2237 53.4558 40.5882 56.1438 42.9295 58.1119C43.016 59.22 43.3139 60.3013 43.807 61.2974L43.9279 61.5709C44.3162 62.4678 45.3901 67.0307 46.0174 69.8784C46.0403 69.9857 46.0842 70.0875 46.1465 70.1777C46.2088 70.268 46.2884 70.3451 46.3806 70.4045C46.4729 70.4639 46.576 70.5045 46.6839 70.5239C46.7919 70.5433 46.9027 70.5412 47.0098 70.5176C47.117 70.4941 47.2184 70.4496 47.3083 70.3867C47.3982 70.3238 47.4747 70.2437 47.5335 70.1511C47.5924 70.0585 47.6323 69.9552 47.651 69.8471C47.6697 69.739 47.6669 69.6282 47.6427 69.5212C47.4796 68.7796 46.0341 62.241 45.4544 60.9091L45.3257 60.6174C44.6601 59.1258 43.65 56.8705 46.3547 52.8889C46.6043 52.5228 46.9382 52.1124 47.2927 51.6808C48.402 50.3229 49.5502 48.9185 49.2402 47.5273C48.8226 45.4779 48.5176 43.4071 48.3266 41.3242C48.3078 41.1093 48.306 40.8932 48.3211 40.678C48.3238 40.6073 48.3466 40.5388 48.3868 40.4805C48.427 40.4221 48.4828 40.3764 48.5479 40.3485C48.6261 40.3141 48.7116 40.2997 48.7967 40.3065C48.8818 40.3134 48.9639 40.3414 49.0355 40.3879C49.1091 40.4438 49.1633 40.5214 49.1903 40.6098C49.7161 42.1357 50.4267 44.0489 51.0562 45.7362L51.5244 46.9926C52.2398 48.9321 52.2789 51.0564 51.6353 53.0209C51.2576 53.8175 48.8619 59.0082 49.3727 61.4167C49.7827 63.347 52.6271 69.767 52.748 70.0399C52.8384 70.2402 53.0044 70.3966 53.2097 70.475C53.4151 70.5533 53.6431 70.5473 53.8439 70.4581C54.0448 70.3689 54.2023 70.2039 54.2819 69.9991C54.3615 69.7943 54.3569 69.5662 54.269 69.3648C53.544 67.7313 51.7257 63.4968 51.1472 61.6069C53.5878 62.4279 56.0767 63.3636 57.3752 64.5657C58.9814 66.0859 60.2236 67.9492 61.009 70.0166C61.0715 70.1697 61.1782 70.3007 61.3156 70.3929C61.4529 70.4851 61.6146 70.5342 61.78 70.5341C61.8875 70.5342 61.9939 70.5133 62.0934 70.4725C62.1947 70.4314 62.2869 70.3708 62.3648 70.2941C62.4427 70.2173 62.5047 70.126 62.5472 70.0253C62.5898 69.9246 62.6121 69.8164 62.6128 69.7071C62.6136 69.5978 62.5927 69.4894 62.5516 69.3881ZM18.3846 45.1544L17.9164 46.4141C17.3697 47.897 17.1548 49.4818 17.2868 51.0568C16.9773 50.2678 16.8448 49.4204 16.8986 48.5746C16.9108 47.0608 18.2814 42.5007 19.094 42.2234C19.1547 42.2118 19.2173 42.2156 19.2762 42.2343C19.3351 42.253 19.3884 42.286 19.4313 42.3304C19.0863 43.2723 18.7235 44.2458 18.3846 45.1544ZM54.6234 34.3768C54.3328 36.1285 52.5156 38.2163 50.7506 38.6673C51.0949 37.3741 51.3543 36.0599 51.5272 34.7329C51.6017 34.5471 51.7346 34.3904 51.9056 34.2864C52.0767 34.1824 52.2769 34.1367 52.4762 34.156C52.5853 34.1672 52.6955 34.1567 52.8005 34.1251C52.9056 34.0936 53.0033 34.0415 53.0881 33.9721C53.173 33.9026 53.2433 33.817 53.2949 33.7203C53.3466 33.6236 53.3786 33.5176 53.3892 33.4085C53.3997 33.2993 53.3886 33.1892 53.3565 33.0843C53.3243 32.9795 53.2718 32.882 53.2018 32.7976C53.1319 32.7131 53.0459 32.6434 52.9489 32.5922C52.8519 32.5411 52.7457 32.5097 52.6365 32.4997C52.3389 32.4714 52.0386 32.4949 51.749 32.5691C51.8034 31.8295 51.8369 31.0729 51.8494 30.2993C52.6302 30.3207 53.3722 30.6445 53.919 31.2023C54.2705 31.6428 54.5167 32.1578 54.6388 32.708C54.7608 33.2582 54.7556 33.8289 54.6234 34.3768ZM17.7861 14.2133C21.7304 7.03568 28.6835 2.39572 35.5 2.39295C42.3166 2.39017 49.2701 7.03568 53.2145 14.2133C54.9507 17.3751 54.7382 23.744 53.727 29.0701C53.1131 28.8039 52.4545 28.6556 51.7856 28.633C51.2531 21.3649 50.227 15.6977 44.2741 13.7857C43.9182 13.6743 43.602 13.4624 43.3638 13.1755C40.8 10.0471 36.8828 8.42961 33.3839 9.05363C30.3126 9.60222 27.9729 11.7794 26.7947 15.184C25.4297 19.1306 23.9159 20.255 22.5791 21.2462C20.9056 22.4893 19.4535 23.5864 19.1928 28.633C18.5314 28.6574 17.8803 28.8049 17.273 29.0679C16.264 23.7434 16.0493 17.3739 17.7861 14.2133ZM16.3766 34.3768C16.2441 33.8291 16.2385 33.2584 16.3602 32.7082C16.4819 32.1581 16.7277 31.643 17.0788 31.2023C17.637 30.6346 18.3961 30.3092 19.1922 30.2965C19.2061 31.0731 19.2382 31.8363 19.2932 32.5813C18.9895 32.4978 18.6732 32.4701 18.3596 32.4997C18.2504 32.5097 18.1442 32.5411 18.0472 32.5922C17.9502 32.6434 17.8643 32.7131 17.7943 32.7976C17.7244 32.882 17.6718 32.9795 17.6397 33.0843C17.6075 33.1892 17.5964 33.2993 17.607 33.4085C17.6175 33.5176 17.6496 33.6236 17.7012 33.7203C17.7529 33.817 17.8232 33.9026 17.908 33.9721C17.9928 34.0415 18.0906 34.0936 18.1956 34.1251C18.3006 34.1567 18.4108 34.1672 18.5199 34.156C18.6813 34.141 19.1645 34.1005 19.5289 34.8411C19.7028 36.1357 19.9596 37.4178 20.2977 38.6795C18.5155 38.2579 16.6706 36.1462 16.3766 34.3768ZM29.2875 50.79C29.1977 52.3243 29.0762 54.3084 27.8731 55.9164C27.5031 54.4946 26.8763 53.1524 26.0237 51.9559C25.7342 51.5288 25.377 51.0917 24.9987 50.6291C24.2615 49.7278 23.2525 48.4941 23.3867 47.8923C23.4822 47.4663 23.6158 46.7469 23.7539 45.9187C24.1 46.3556 24.4735 46.7701 24.8722 47.1596C26.2006 48.4882 27.6872 49.6486 29.2986 50.6147C29.2958 50.6752 29.2914 50.7279 29.2875 50.79ZM46.0002 50.6291C45.6219 51.0917 45.2647 51.5288 44.9752 51.9559C44.1234 53.1513 43.497 54.4921 43.127 55.9125C41.9255 54.3039 41.8013 52.3243 41.7108 50.7922C41.7075 50.7301 41.7031 50.6768 41.6998 50.6164C43.3112 49.6483 44.7981 48.4867 46.1273 47.1573C46.5258 46.7673 46.8991 46.3523 47.245 45.9148C47.3831 46.7435 47.5173 47.4635 47.6127 47.8895C47.747 48.4941 46.738 49.7278 46.0008 50.6291H46.0002ZM47.8695 38.8282C47.5378 38.9753 47.2512 39.2083 47.0393 39.503C46.8275 39.7977 46.698 40.1436 46.6642 40.505C46.6642 40.505 46.6415 41.0646 46.6642 41.4274C46.6997 42.0048 46.7829 42.7537 46.8861 43.5424C46.3465 44.4241 45.7019 45.2369 44.9663 45.9631C42.7476 48.1136 40.1011 50.2231 35.809 51.0873C35.6032 51.1283 35.3913 51.1283 35.1855 51.0873C30.8933 50.2231 28.248 48.1136 26.0282 45.9631C25.2936 45.2369 24.6499 44.4243 24.1112 43.543C24.216 42.7542 24.2987 42.0065 24.333 41.4285C24.3554 41.1476 24.3578 40.8655 24.3403 40.5843C24.3403 40.5793 24.3336 40.5105 24.333 40.5061C24.2997 40.1448 24.1707 39.7989 23.9594 39.504C23.748 39.2091 23.4619 38.9758 23.1305 38.8282C22.7836 38.6735 22.4024 38.6117 22.0244 38.649C21.204 35.6605 20.8079 32.5716 20.8479 29.4728C20.8479 29.4661 20.8479 29.4595 20.8479 29.4528C20.9972 24.7524 22.0211 23.7407 23.5742 22.5836C25.0264 21.5047 26.8347 20.1618 28.3684 15.7293C29.6142 12.1283 31.9428 11.0034 33.6768 10.6938C36.5927 10.1708 39.8893 11.5619 42.0775 14.2328C42.5191 14.7664 43.1054 15.1613 43.766 15.3699C48.4614 16.8786 49.6107 21.305 50.1809 29.5144V29.5438C50.1809 29.5438 50.1843 29.5593 50.1854 29.5676C50.1892 29.6231 50.1937 29.6786 50.1976 29.734C50.2171 32.7496 49.8214 35.7535 49.0216 38.6612C48.6296 38.6113 48.2313 38.669 47.8695 38.8282ZM51.5676 42.3293C51.6092 42.285 51.6611 42.2516 51.7187 42.2323C51.7763 42.2129 51.8378 42.2081 51.8977 42.2184C52.7175 42.4957 54.0881 47.0575 54.1003 48.5712C54.1531 49.4151 54.0206 50.2602 53.7121 51.0474C53.8429 49.4756 53.6284 47.8942 53.0836 46.4141L52.6149 45.1544C52.2765 44.2458 51.9138 43.2723 51.5693 42.3304L51.5676 42.3293Z" fill="#267C8F"/>
<path d="M23.2553 35.911C23.0599 35.8629 22.8619 35.8259 22.6623 35.8001C22.5889 35.788 22.5138 35.7907 22.4414 35.8082C22.3691 35.8257 22.301 35.8576 22.2412 35.9019C22.1815 35.9463 22.1313 36.0022 22.0936 36.0664C22.0559 36.1306 22.0315 36.2017 22.0218 36.2755C22.0122 36.3493 22.0175 36.4243 22.0374 36.496C22.0574 36.5677 22.0915 36.6346 22.1379 36.6929C22.1842 36.7511 22.2418 36.7994 22.3073 36.8349C22.3727 36.8704 22.4446 36.8923 22.5186 36.8995C22.6775 36.9208 22.8351 36.9506 22.9907 36.9888C23.0341 36.9996 23.0786 37.005 23.1233 37.0049C23.2588 37.0047 23.3895 36.955 23.4908 36.8651C23.5922 36.7751 23.6571 36.6512 23.6733 36.5167C23.6896 36.3822 23.656 36.2464 23.579 36.1349C23.502 36.0234 23.3868 35.944 23.2553 35.9116V35.911Z" fill="#267C8F"/>
<path d="M27.5197 41.4801C27.4469 41.4837 27.3756 41.5016 27.3097 41.5328C27.2439 41.564 27.1848 41.6079 27.136 41.662C27.0871 41.716 27.0493 41.7791 27.0248 41.8478C27.0004 41.9164 26.9897 41.9892 26.9933 42.0619C26.9978 42.149 27.0005 42.2367 27 42.3271C27 42.402 27 42.4774 26.995 42.549C26.9916 42.6217 27.0026 42.6944 27.0274 42.763C27.0521 42.8315 27.0901 42.8944 27.1392 42.9483C27.1883 43.0021 27.2475 43.0457 27.3135 43.0767C27.3794 43.1076 27.4508 43.1253 27.5236 43.1286H27.5497C27.6925 43.1288 27.8298 43.0738 27.9331 42.9753C28.0365 42.8767 28.0978 42.7421 28.1044 42.5994C28.1088 42.5079 28.1105 42.4164 28.1105 42.3265C28.1105 42.2189 28.1105 42.1113 28.1027 42.0031C28.0945 41.8566 28.0286 41.7192 27.9193 41.6211C27.81 41.5231 27.6663 41.4724 27.5197 41.4801Z" fill="#267C8F"/>
<path d="M25.398 36.9366C25.3398 36.8929 25.2734 36.8611 25.2029 36.843C25.1323 36.825 25.0589 36.821 24.9868 36.8313C24.9147 36.8416 24.8453 36.866 24.7826 36.9031C24.7199 36.9402 24.6652 36.9893 24.6215 37.0476C24.5778 37.1058 24.546 37.1721 24.5279 37.2427C24.5098 37.3133 24.5058 37.3867 24.5161 37.4588C24.5264 37.5309 24.5508 37.6003 24.5879 37.663C24.625 37.7257 24.6741 37.7804 24.7324 37.8241C24.8622 37.921 24.9883 38.0251 25.1107 38.1364C25.2199 38.2351 25.3638 38.2864 25.5107 38.279C25.6577 38.2717 25.7958 38.2062 25.8945 38.097C25.9932 37.9879 26.0445 37.844 26.0371 37.697C26.0297 37.55 25.9642 37.412 25.8551 37.3133C25.7087 37.1796 25.555 37.0531 25.398 36.9366Z" fill="#267C8F"/>
<path d="M26.5451 40.1516C26.6029 40.2873 26.7123 40.3944 26.8491 40.4494C26.9859 40.5044 27.1389 40.5029 27.2745 40.4451C27.4102 40.3872 27.5173 40.2779 27.5723 40.1411C27.6273 40.0043 27.6258 39.8513 27.568 39.7156C27.4914 39.5365 27.4066 39.3601 27.3289 39.2164C27.32 39.1976 27.3012 39.161 27.2901 39.1438C27.2155 39.0212 27.0957 38.9328 26.9567 38.8975C26.8176 38.8623 26.6702 38.883 26.5462 38.9552C26.4206 39.0286 26.3284 39.1479 26.2887 39.2879C26.2491 39.4279 26.2653 39.5778 26.3338 39.7062C26.4098 39.8515 26.4813 40.0008 26.5451 40.1516Z" fill="#267C8F"/>
<path d="M27.2718 44.1698C27.2065 44.1373 27.1355 44.118 27.0628 44.1131C26.9901 44.1081 26.9171 44.1175 26.848 44.1407C26.7789 44.1639 26.7151 44.2005 26.6602 44.2485C26.6053 44.2964 26.5603 44.3546 26.5279 44.4199C26.4569 44.5628 26.3779 44.7015 26.2911 44.8354C26.2504 44.8965 26.2223 44.9651 26.2083 45.0371C26.1944 45.1092 26.1948 45.1833 26.2097 45.2552C26.2246 45.327 26.2536 45.3952 26.295 45.4558C26.3365 45.5164 26.3895 45.5682 26.4511 45.6081C26.5127 45.648 26.5816 45.6754 26.6538 45.6885C26.726 45.7016 26.8001 45.7002 26.8718 45.6845C26.9435 45.6687 27.0114 45.6389 27.0715 45.5968C27.1315 45.5546 27.1827 45.5009 27.2219 45.4389C27.3318 45.2696 27.4318 45.094 27.5214 44.913C27.5868 44.7814 27.5972 44.6291 27.5504 44.4897C27.5036 44.3504 27.4034 44.2353 27.2718 44.1698Z" fill="#267C8F"/>
<path d="M45.6508 36.9366C45.4936 37.0542 45.3407 37.1799 45.1921 37.3138C45.0829 37.4125 45.0174 37.5505 45.01 37.6975C45.0027 37.8445 45.054 37.9884 45.1527 38.0976C45.2514 38.2067 45.3894 38.2722 45.5364 38.2796C45.6834 38.287 45.8273 38.2357 45.9364 38.137C46.0592 38.026 46.1855 37.9219 46.3153 37.8247C46.3736 37.781 46.4227 37.7262 46.4598 37.6635C46.4969 37.6009 46.5213 37.5315 46.5316 37.4594C46.5419 37.3873 46.5379 37.3138 46.5198 37.2433C46.5017 37.1727 46.4699 37.1064 46.4262 37.0481C46.3825 36.9898 46.3278 36.9407 46.2651 36.9036C46.2024 36.8665 46.133 36.8421 46.0609 36.8318C45.9888 36.8215 45.9154 36.8255 45.8448 36.8436C45.7743 36.8617 45.7079 36.8935 45.6497 36.9372L45.6508 36.9366Z" fill="#267C8F"/>
<path d="M48.3837 35.7995C48.1843 35.8254 47.9865 35.8624 47.7913 35.9105C47.6598 35.9429 47.5447 36.0222 47.4676 36.1337C47.3906 36.2451 47.357 36.3808 47.3732 36.5153C47.3894 36.6498 47.4542 36.7737 47.5554 36.8637C47.6567 36.9537 47.7873 37.0035 47.9228 37.0038C47.9675 37.0039 48.012 36.9984 48.0553 36.9877C48.2112 36.9495 48.3689 36.9197 48.5279 36.8984C48.6019 36.8911 48.6737 36.869 48.7389 36.8334C48.8042 36.7978 48.8616 36.7495 48.9078 36.6912C48.9541 36.633 48.9881 36.5661 49.0079 36.4945C49.0278 36.4228 49.033 36.3479 49.0234 36.2742C49.0137 36.2005 48.9893 36.1295 48.9517 36.0654C48.914 36.0013 48.8639 35.9455 48.8042 35.9011C48.7445 35.8568 48.6766 35.8249 48.6043 35.8074C48.5321 35.7898 48.4571 35.787 48.3837 35.799V35.7995Z" fill="#267C8F"/>
<path d="M43.7726 40.4434C43.8415 40.4729 43.9157 40.488 43.9906 40.4877C44.0992 40.4878 44.2055 40.456 44.2962 40.3963C44.3869 40.3365 44.4581 40.2514 44.5009 40.1516C44.5645 40.0007 44.6359 39.8515 44.715 39.704C44.7835 39.5755 44.7995 39.4255 44.7598 39.2855C44.7201 39.1455 44.6277 39.0263 44.502 38.9529C44.378 38.8807 44.2307 38.86 44.0916 38.8953C43.9525 38.9306 43.8328 39.019 43.7582 39.1415C43.7476 39.1598 43.7282 39.197 43.7199 39.2142C43.6417 39.3595 43.5574 39.5359 43.4803 39.7134C43.4514 39.7805 43.436 39.8526 43.435 39.9257C43.4341 39.9988 43.4476 40.0713 43.4748 40.1391C43.5019 40.2069 43.5422 40.2687 43.5933 40.321C43.6444 40.3732 43.7054 40.4148 43.7726 40.4434Z" fill="#267C8F"/>
<path d="M44.5181 44.4199C44.4867 44.353 44.4423 44.2931 44.3875 44.2436C44.3326 44.1941 44.2684 44.156 44.1987 44.1317C44.1289 44.1073 44.055 44.0972 43.9813 44.1018C43.9075 44.1064 43.8354 44.1257 43.7692 44.1585C43.7031 44.1914 43.6441 44.2371 43.5959 44.2931C43.5476 44.349 43.511 44.4141 43.4882 44.4843C43.4654 44.5546 43.4569 44.6288 43.4632 44.7024C43.4694 44.776 43.4903 44.8476 43.5247 44.9131C43.6142 45.094 43.7142 45.2696 43.8242 45.4389C43.9051 45.5604 44.0306 45.6452 44.1735 45.6748C44.3164 45.7043 44.4653 45.6764 44.5877 45.597C44.7102 45.5176 44.7964 45.3931 44.8277 45.2505C44.8591 45.108 44.8329 44.9588 44.755 44.8354C44.6684 44.7014 44.5893 44.5627 44.5181 44.4199Z" fill="#267C8F"/>
<path d="M43.5224 43.1314C43.5952 43.1281 43.6666 43.1104 43.7326 43.0795C43.7985 43.0485 43.8577 43.0049 43.9068 42.9511C43.9559 42.8972 43.9939 42.8343 44.0187 42.7658C44.0434 42.6972 44.0544 42.6245 44.0511 42.5518C44.0511 42.4774 44.0466 42.402 44.0466 42.3299C44.0466 42.2395 44.0466 42.1518 44.0527 42.0647C44.0601 41.9176 44.0087 41.7736 43.9099 41.6644C43.811 41.5552 43.6729 41.4897 43.5258 41.4823C43.3787 41.475 43.2346 41.5264 43.1254 41.6252C43.0162 41.724 42.9507 41.8622 42.9433 42.0093C42.9384 42.1174 42.9356 42.225 42.9361 42.3327C42.9361 42.4225 42.9361 42.514 42.9417 42.6056C42.9483 42.7482 43.0096 42.8828 43.1129 42.9814C43.2162 43.08 43.3536 43.1349 43.4964 43.1347L43.5224 43.1314Z" fill="#267C8F"/>
</svg>
